# xmcd
#
# Track frame offsets:
#	150
#	23393
#	42988
#	60138
#	80245
#	99439
#	122692
#	148744
#	173143
#	194462
#	218588
#	243836
#
# Disc length: 3846 seconds
#
# Revision: 1
# Processed by: cddbd v1.5.2PL0 Copyright (c) Steve Scherf et al.
# Submitted via: audiograbber 1.83.01
#
DISCID=980f040c
DTITLE=Pachuly and Friends - Spirit Of Pachulys Flute
DYEAR=2009
DGENRE=Indie
TTITLE0=Clouds of Sunset
TTITLE1=Daydreamer
TTITLE2=Yellow Wild Flower
TTITLE3=Nightwind
TTITLE4=It's no good erying
TTITLE5=Glen of Silence
TTITLE6=Forget your Sorrows
TTITLE7=Father and Son
TTITLE8=The Wedding day
TTITLE9=The early Bird
TTITLE10=A new Morning
TTITLE11=Daten-CD
EXTD=
EXTT0=
EXTT1=
EXTT2=
EXTT3=
EXTT4=
EXTT5=
EXTT6=
EXTT7=
EXTT8=
EXTT9=
EXTT10=
EXTT11=
PLAYORDER=
